<svg width="100" height="90" viewBox="0 0 100 90" fill="none" xmlns="http://www.w3.org/2000/svg">
<g filter="url(#filter0_d_1_5247)">
<path fill-rule="evenodd" clip-rule="evenodd" d="M64.7095 72.0953V81.4445C73.1825 79.3388 79.5157 74.58 83.7095 67.168C87.9032 59.7559 90 49.6909 90 36.9726V16H61.5L61.5 44.0476H73.6959V46.9535C73.6959 53.7759 72.9471 59.2717 71.4493 63.4409C69.9516 67.6102 67.705 70.4949 64.7095 72.0953ZM17.2095 72.0953V81.4445C25.6825 79.3388 32.0157 74.58 36.2095 67.168C40.4032 59.7559 42.5 49.6909 42.5 36.9726V16L14 16L14 44.0476H26.1959V46.9535C26.1959 53.7759 25.4471 59.2717 23.9493 63.4409C22.4516 67.6102 20.205 70.4949 17.2095 72.0953Z" fill="#FFBF26"/>
</g>
<defs>
<filter id="filter0_d_1_5247" x="0" y="1.52588e-05" width="100" height="89.4444" filterUnits="userSpaceOnUse" color-interpolation-filters="sRGB">
<feFlood flood-opacity="0" result="BackgroundImageFix"/>
<feColorMatrix in="SourceAlpha" type="matrix" values="0 0 0 0 0 0 0 0 0 0 0 0 0 0 0 0 0 0 127 0" result="hardAlpha"/>
<feOffset dx="-2" dy="-4"/>
<feGaussianBlur stdDeviation="6"/>
<feComposite in2="hardAlpha" operator="out"/>
<feColorMatrix type="matrix" values="0 0 0 0 0 0 0 0 0 0 0 0 0 0 0 0 0 0 0.15 0"/>
<feBlend mode="normal" in2="BackgroundImageFix" result="effect1_dropShadow_1_5247"/>
<feBlend mode="normal" in="SourceGraphic" in2="effect1_dropShadow_1_5247" result="shape"/>
</filter>
</defs>
</svg>
