<svg width="35" height="25" viewBox="0 0 35 25" fill="none" xmlns="http://www.w3.org/2000/svg">
<path d="M26.5745 13.3679V20.1021C26.5745 20.3453 26.4802 20.5557 26.2917 20.7334C26.1031 20.9111 25.8798 21 25.6218 21H19.9054V15.6126H16.0946V21H10.3782C10.1202 21 9.8969 20.9111 9.70834 20.7334C9.51978 20.5557 9.4255 20.3453 9.4255 20.1021V13.3679C9.4255 13.3585 9.42798 13.3445 9.43294 13.3258C9.43791 13.3071 9.44039 13.2931 9.44039 13.2837L18 6.63367L26.5596 13.2837C26.5695 13.3024 26.5745 13.3305 26.5745 13.3679ZM29.8941 12.3998L28.9712 13.438C28.8918 13.5222 28.7876 13.5737 28.6586 13.5924H28.6139C28.4849 13.5924 28.3807 13.5596 28.3013 13.4942L18 5.39906L7.69869 13.4942C7.5796 13.569 7.46051 13.6017 7.34142 13.5924C7.21241 13.5737 7.1082 13.5222 7.02881 13.438L6.10586 12.3998C6.02646 12.3063 5.99173 12.1964 6.00165 12.0701C6.01158 11.9439 6.06616 11.8433 6.1654 11.7685L16.8686 3.36477C17.1862 3.12159 17.5633 3 18 3C18.4367 3 18.8138 3.12159 19.1314 3.36477L22.7636 6.22681V3.49104C22.7636 3.36009 22.8083 3.25253 22.8976 3.16836C22.9869 3.08418 23.101 3.04209 23.24 3.04209H26.0981C26.2371 3.04209 26.3512 3.08418 26.4405 3.16836C26.5298 3.25253 26.5745 3.36009 26.5745 3.49104V9.21512L29.8346 11.7685C29.9338 11.8433 29.9884 11.9439 29.9983 12.0701C30.0083 12.1964 29.9735 12.3063 29.8941 12.3998Z" fill="#737373"/>
</svg>
