<svg width="100" height="90" viewBox="0 0 100 90" fill="none" xmlns="http://www.w3.org/2000/svg">
<g filter="url(#filter0_d_1_5244)">
<path fill-rule="evenodd" clip-rule="evenodd" d="M35.2905 17.3492V8C26.8175 10.1057 20.4843 14.8645 16.2905 22.2765C12.0968 29.6885 10 39.7535 10 52.4719V73.4444H38.5V45.3968H26.3041V42.491C26.3041 35.6686 27.0529 30.1728 28.5507 26.0035C30.0484 21.8343 32.295 18.9495 35.2905 17.3492ZM82.7905 17.3492V8C74.3175 10.1057 67.9843 14.8645 63.7905 22.2765C59.5968 29.6885 57.5 39.7535 57.5 52.4719V73.4444H86V45.3968H73.8041V42.491C73.8041 35.6686 74.5529 30.1728 76.0507 26.0035C77.5484 21.8343 79.795 18.9495 82.7905 17.3492Z" fill="#FFBF26"/>
</g>
<defs>
<filter id="filter0_d_1_5244" x="0" y="0" width="100" height="89.4444" filterUnits="userSpaceOnUse" color-interpolation-filters="sRGB">
<feFlood flood-opacity="0" result="BackgroundImageFix"/>
<feColorMatrix in="SourceAlpha" type="matrix" values="0 0 0 0 0 0 0 0 0 0 0 0 0 0 0 0 0 0 127 0" result="hardAlpha"/>
<feOffset dx="2" dy="4"/>
<feGaussianBlur stdDeviation="6"/>
<feComposite in2="hardAlpha" operator="out"/>
<feColorMatrix type="matrix" values="0 0 0 0 0 0 0 0 0 0 0 0 0 0 0 0 0 0 0.15 0"/>
<feBlend mode="normal" in2="BackgroundImageFix" result="effect1_dropShadow_1_5244"/>
<feBlend mode="normal" in="SourceGraphic" in2="effect1_dropShadow_1_5244" result="shape"/>
</filter>
</defs>
</svg>
